# xmcd CD database file
#
# Track frame offsets:
#	150
#	14250
#	26250
#	44850
#	63975
#	79725
#	96375
#	118200
#	130650
#	148050
#	157425
#	179400
#	198000
#	216675
#
# Disc length: 3117 seconds
#
# Revision: 0
# Processed by: cddbd v1.4PL0 Copyright (c) Steve Scherf et al.
# Submitted via: Feurio! 1.65 - http://www.feurio.com
#
DISCID=d50c2b0e
DTITLE=The Blues Band - Ready
DYEAR=1900
DGENRE=
TTITLE0=Twentynine Ways
TTITLE1=Find yourself another fool
TTITLE2=Noah Lewis Blues
TTITLE3=Hallelujah I love her so
TTITLE4=Treat her right
TTITLE5=Lonely avenue
TTITLE6=That´s all right
TTITLE7=I´m ready
TTITLE8=Green stuff
TTITLE9=Hey, hey, little girl
TTITLE10=Can´t hold on
TTITLE11=Sus blues
TTITLE12=The cat
TTITLE13=Nadine
EXTD=
EXTT0=
EXTT1=
EXTT2=
EXTT3=
EXTT4=
EXTT5=
EXTT6=
EXTT7=
EXTT8=
EXTT9=
EXTT10=
EXTT11=
EXTT12=
EXTT13=
PLAYORDER=
